Results
version=1
nRows=4
nColumns=205
inDegrees=yes
endheader
time	/jointset/ground_pelvis/pelvis_tilt/value	/jointset/ground_pelvis/pelvis_tilt/speed	/jointset/ground_pelvis/pelvis_list/value	/jointset/ground_pelvis/pelvis_list/speed	/jointset/ground_pelvis/pelvis_rotation/value	/jointset/ground_pelvis/pelvis_rotation/speed	/jointset/ground_pelvis/pelvis_tx/value	/jointset/ground_pelvis/pelvis_tx/speed	/jointset/ground_pelvis/pelvis_ty/value	/jointset/ground_pelvis/pelvis_ty/speed	/jointset/ground_pelvis/pelvis_tz/value	/jointset/ground_pelvis/pelvis_tz/speed	/jointset/hip_r/hip_flexion_r/value	/jointset/hip_r/hip_flexion_r/speed	/jointset/hip_r/hip_adduction_r/value	/jointset/hip_r/hip_adduction_r/speed	/jointset/hip_r/hip_rotation_r/value	/jointset/hip_r/hip_rotation_r/speed	/jointset/walker_knee_r/knee_angle_r/value	/jointset/walker_knee_r/knee_angle_r/speed	/jointset/patellofemoral_r/knee_angle_r_beta/value	/jointset/patellofemoral_r/knee_angle_r_beta/speed	/jointset/ankle_r/ankle_angle_r/value	/jointset/ankle_r/ankle_angle_r/speed	/jointset/subtalar_r/subtalar_angle_r/value	/jointset/subtalar_r/subtalar_angle_r/speed	/jointset/mtp_r/mtp_angle_r/value	/jointset/mtp_r/mtp_angle_r/speed	/jointset/hip_l/hip_flexion_l/value	/jointset/hip_l/hip_flexion_l/speed	/jointset/hip_l/hip_adduction_l/value	/jointset/hip_l/hip_adduction_l/speed	/jointset/hip_l/hip_rotation_l/value	/jointset/hip_l/hip_rotation_l/speed	/jointset/walker_knee_l/knee_angle_l/value	/jointset/walker_knee_l/knee_angle_l/speed	/jointset/patellofemoral_l/knee_angle_l_beta/value	/jointset/patellofemoral_l/knee_angle_l_beta/speed	/jointset/ankle_l/ankle_angle_l/value	/jointset/ankle_l/ankle_angle_l/speed	/jointset/subtalar_l/subtalar_angle_l/value	/jointset/subtalar_l/subtalar_angle_l/speed	/jointset/mtp_l/mtp_angle_l/value	/jointset/mtp_l/mtp_angle_l/speed	/jointset/back/lumbar_extension/value	/jointset/back/lumbar_extension/speed	/jointset/back/lumbar_bending/value	/jointset/back/lumbar_bending/speed	/jointset/back/lumbar_rotation/value	/jointset/back/lumbar_rotation/speed	/jointset/acromial_r/arm_flex_r/value	/jointset/acromial_r/arm_flex_r/speed	/jointset/acromial_r/arm_add_r/value	/jointset/acromial_r/arm_add_r/speed	/jointset/acromial_r/arm_rot_r/value	/jointset/acromial_r/arm_rot_r/speed	/jointset/elbow_r/elbow_flex_r/value	/jointset/elbow_r/elbow_flex_r/speed	/jointset/radioulnar_r/pro_sup_r/value	/jointset/radioulnar_r/pro_sup_r/speed	/jointset/radius_hand_r/wrist_flex_r/value	/jointset/radius_hand_r/wrist_flex_r/speed	/jointset/radius_hand_r/wrist_dev_r/value	/jointset/radius_hand_r/wrist_dev_r/speed	/jointset/acromial_l/arm_flex_l/value	/jointset/acromial_l/arm_flex_l/speed	/jointset/acromial_l/arm_add_l/value	/jointset/acromial_l/arm_add_l/speed	/jointset/acromial_l/arm_rot_l/value	/jointset/acromial_l/arm_rot_l/speed	/jointset/elbow_l/elbow_flex_l/value	/jointset/elbow_l/elbow_flex_l/speed	/jointset/radioulnar_l/pro_sup_l/value	/jointset/radioulnar_l/pro_sup_l/speed	/jointset/radius_hand_l/wrist_flex_l/value	/jointset/radius_hand_l/wrist_flex_l/speed	/jointset/radius_hand_l/wrist_dev_l/value	/jointset/radius_hand_l/wrist_dev_l/speed	/forceset/addbrev_r/activation	/forceset/addlong_r/activation	/forceset/addlong_r/fiber_length	/forceset/addmagDist_r/activation	/forceset/addmagIsch_r/activation	/forceset/addmagIsch_r/fiber_length	/forceset/addmagMid_r/activation	/forceset/addmagProx_r/activation	/forceset/bflh_r/activation	/forceset/bflh_r/fiber_length	/forceset/bfsh_r/activation	/forceset/edl_r/activation	/forceset/edl_r/fiber_length	/forceset/ehl_r/activation	/forceset/ehl_r/fiber_length	/forceset/fdl_r/activation	/forceset/fdl_r/fiber_length	/forceset/fhl_r/activation	/forceset/fhl_r/fiber_length	/forceset/gaslat_r/activation	/forceset/gaslat_r/fiber_length	/forceset/gasmed_r/activation	/forceset/gasmed_r/fiber_length	/forceset/glmax1_r/activation	/forceset/glmax2_r/activation	/forceset/glmax3_r/activation	/forceset/glmed1_r/activation	/forceset/glmed2_r/activation	/forceset/glmed3_r/activation	/forceset/glmin1_r/activation	/forceset/glmin2_r/activation	/forceset/glmin3_r/activation	/forceset/glmin3_r/fiber_length	/forceset/grac_r/activation	/forceset/iliacus_r/activation	/forceset/perbrev_r/activation	/forceset/perbrev_r/fiber_length	/forceset/perlong_r/activation	/forceset/perlong_r/fiber_length	/forceset/piri_r/activation	/forceset/piri_r/fiber_length	/forceset/psoas_r/activation	/forceset/recfem_r/activation	/forceset/recfem_r/fiber_length	/forceset/sart_r/activation	/forceset/semimem_r/activation	/forceset/semimem_r/fiber_length	/forceset/semiten_r/activation	/forceset/semiten_r/fiber_length	/forceset/soleus_r/activation	/forceset/soleus_r/fiber_length	/forceset/tfl_r/activation	/forceset/tfl_r/fiber_length	/forceset/tibant_r/activation	/forceset/tibant_r/fiber_length	/forceset/tibpost_r/activation	/forceset/tibpost_r/fiber_length	/forceset/vasint_r/activation	/forceset/vasint_r/fiber_length	/forceset/vaslat_r/activation	/forceset/vaslat_r/fiber_length	/forceset/vasmed_r/activation	/forceset/vasmed_r/fiber_length	/forceset/addbrev_l/activation	/forceset/addlong_l/activation	/forceset/addlong_l/fiber_length	/forceset/addmagDist_l/activation	/forceset/addmagIsch_l/activation	/forceset/addmagIsch_l/fiber_length	/forceset/addmagMid_l/activation	/forceset/addmagProx_l/activation	/forceset/bflh_l/activation	/forceset/bflh_l/fiber_length	/forceset/bfsh_l/activation	/forceset/edl_l/activation	/forceset/edl_l/fiber_length	/forceset/ehl_l/activation	/forceset/ehl_l/fiber_length	/forceset/fdl_l/activation	/forceset/fdl_l/fiber_length	/forceset/fhl_l/activation	/forceset/fhl_l/fiber_length	/forceset/gaslat_l/activation	/forceset/gaslat_l/fiber_length	/forceset/gasmed_l/activation	/forceset/gasmed_l/fiber_length	/forceset/glmax1_l/activation	/forceset/glmax2_l/activation	/forceset/glmax3_l/activation	/forceset/glmed1_l/activation	/forceset/glmed2_l/activation	/forceset/glmed3_l/activation	/forceset/glmin1_l/activation	/forceset/glmin2_l/activation	/forceset/glmin3_l/activation	/forceset/glmin3_l/fiber_length	/forceset/grac_l/activation	/forceset/iliacus_l/activation	/forceset/perbrev_l/activation	/forceset/perbrev_l/fiber_length	/forceset/perlong_l/activation	/forceset/perlong_l/fiber_length	/forceset/piri_l/activation	/forceset/piri_l/fiber_length	/forceset/psoas_l/activation	/forceset/recfem_l/activation	/forceset/recfem_l/fiber_length	/forceset/sart_l/activation	/forceset/semimem_l/activation	/forceset/semimem_l/fiber_length	/forceset/semiten_l/activation	/forceset/semiten_l/fiber_length	/forceset/soleus_l/activation	/forceset/soleus_l/fiber_length	/forceset/tfl_l/activation	/forceset/tfl_l/fiber_length	/forceset/tibant_l/activation	/forceset/tibant_l/fiber_length	/forceset/tibpost_l/activation	/forceset/tibpost_l/fiber_length	/forceset/vasint_l/activation	/forceset/vasint_l/fiber_length	/forceset/vaslat_l/activation	/forceset/vaslat_l/fiber_length	/forceset/vasmed_l/activation	/forceset/vasmed_l/fiber_length
      0.00000000	      0.00000000	      0.00000000	      0.00000000	      0.00000000	      0.00000000	      0.00000000	      0.00000000	      0.00000000	      0.94000000	      0.00000000	      0.00000000	      0.00000000	      5.92800037	      0.00000000	     -0.00000031	      0.00000000	      0.00000000	      0.00000000	      0.00054601	      0.00000000	      0.00000953	      0.00000000	     -0.00000019	      0.00000000	      0.00000000	      0.00000000	      0.00000000	      0.00000000	      0.00000052	      0.00000000	     -0.00000031	      0.00000000	      0.00000000	      0.00000000	      0.00575100	      0.00000000	      0.00010037	      0.00000000	     -0.00000019	      0.00000000	      0.00000000	      0.00000000	      0.00000000	      0.00000000	      0.00000000	      0.00000000	      0.00000000	      0.00000000	      0.00000000	      0.00000000	      0.00000000	      0.00000000	     -0.00000003	      0.00000000	      0.00000000	      0.00000000	      0.00575071	      0.00000000	      0.00575072	      0.00000000	      0.00000000	      0.00000000	      0.00000000	      0.00000000	      0.00000000	      0.00000000	     -0.00000003	      0.00000000	      0.00000000	      0.00000000	      0.00575071	      0.00000000	      0.00575072	      0.00000000	      0.00000000	      0.00000000	      0.00000000	      0.00000000	      0.01000000	      0.01000000	      0.10798434	      0.01000000	      0.01000000	      0.12943834	      0.01000000	      0.01000000	      0.01000000	      0.09484234	      0.01000000	      0.01000000	      0.06923260	      0.01000000	      0.07815643	      0.01000000	      0.04540190	      0.01000000	      0.05137227	      0.01000000	      0.07016102	      0.01000000	      0.05691209	      0.01000000	      0.01000000	      0.01000000	      0.01000000	      0.01000000	      0.01000000	      0.01000000	      0.01000000	      0.01000000	      0.03916488	      0.01000000	      0.01000000	      0.01000000	      0.04853813	      0.01000000	      0.05409332	      0.01000000	      0.02443176	      0.01000000	      0.01000000	      0.06109258	      0.01000000	      0.01000000	      0.06997308	      0.01000000	      0.21600971	      0.01000000	      0.04795166	      0.01000000	      0.09408173	      0.01000000	      0.06619698	      0.01000000	      0.03920036	      0.01000000	      0.07971036	      0.01000000	      0.07868585	      0.01000000	      0.08036328	      0.01000000	      0.01000000	      0.11276150	      0.01000000	      0.01000000	      0.12520855	      0.01000000	      0.01000000	      0.01000000	      0.08967112	      0.01000000	      0.01000000	      0.06923260	      0.01000000	      0.07815643	      0.01000000	      0.04540190	      0.01000000	      0.05137227	      0.01000000	      0.07016020	      0.01000000	      0.05691211	      0.01000000	      0.01000000	      0.01000000	      0.01000000	      0.01000000	      0.01000000	      0.01000000	      0.01000000	      0.01000000	      0.03799590	      0.01000000	      0.01000000	      0.01000000	      0.04853813	      0.01000000	      0.05409332	      0.01000000	      0.02336894	      0.01000000	      0.01000000	      0.06468012	      0.01000000	      0.01000000	      0.06548607	      0.01000000	      0.21098899	      0.01000000	      0.04795166	      0.01000000	      0.09710268	      0.01000000	      0.06619698	      0.01000000	      0.03920036	      0.01000000	      0.07971451	      0.01000000	      0.07868932	      0.01000000	      0.08036676
      0.00100000	      0.00164786	      3.27556152	     -0.00001786	     -0.03498509	      0.00001259	      0.02567631	      0.00000077	      0.00151940	      0.93999855	     -0.00293920	     -0.00000003	     -0.00005334	      5.92495962	     -6.04568662	     -0.00001779	     -0.03541002	     -0.00153116	     -3.05083412	     -0.00328150	     -7.61592529	     -0.00005727	     -0.13292297	     -0.02862867	    -57.00564316	     -0.00000000	     -0.00000000	      0.00000000	      0.00000000	     -0.00293107	     -5.82754762	     -0.00005465	     -0.10735942	     -0.00146038	     -2.90775481	      0.00211561	     -7.23200085	      0.00003692	     -0.12622223	     -0.02861999	    -56.98755423	      0.00000000	     -0.00000000	      0.00000000	      0.00000000	     -0.00182943	     -3.63658445	      0.00002117	      0.04147890	     -0.00001197	     -0.02445970	      0.00026577	      0.52844325	      0.00000329	      0.00673543	     -0.00001066	     -0.02121351	      0.00566881	     -0.16268797	      0.00576229	      0.02291693	      0.00000000	      0.00000000	      0.00000000	     -0.00000000	      0.00026658	      0.53001209	      0.00001236	      0.02450987	     -0.00000900	     -0.01796642	      0.00566795	     -0.16438263	      0.00576017	      0.01877269	      0.00000000	      0.00000000	      0.00000000	      0.00000000	      0.00987125	      0.00987125	      0.10798514	      0.00987125	      0.00987125	      0.12943770	      0.00987125	      0.00987125	      0.00987125	      0.09484221	      0.00987125	      0.00987125	      0.06923417	      0.00987125	      0.07815864	      0.00987125	      0.04540169	      0.00987125	      0.05137179	      0.00987125	      0.07015877	      0.00987125	      0.05691045	      0.00987125	      0.00987125	      0.00987125	      0.00987125	      0.00987125	      0.00987125	      0.00987125	      0.00987125	      0.00987125	      0.03916463	      0.00987125	      0.00987125	      0.00987125	      0.04853766	      0.00987125	      0.05409295	      0.00987125	      0.02443163	      0.00987125	      0.00987125	      0.06109248	      0.00987125	      0.00987125	      0.06997305	      0.00987125	      0.21600962	      0.00987125	      0.04794975	      0.00987125	      0.09408179	      0.00987125	      0.06619970	      0.00987125	      0.03920006	      0.00987125	      0.07970971	      0.00987125	      0.07868530	      0.00987125	      0.08036264	      0.00987125	      0.00987125	      0.11276235	      0.00987125	      0.00987125	      0.12520801	      0.00987125	      0.00987125	      0.00987125	      0.08967102	      0.00987125	      0.00987125	      0.06923417	      0.00987125	      0.07815864	      0.00987125	      0.04540169	      0.00987125	      0.05137179	      0.00987125	      0.07015794	      0.00987125	      0.05691047	      0.00987125	      0.00987125	      0.00987125	      0.00987125	      0.00987125	      0.00987125	      0.00987125	      0.00987125	      0.00987125	      0.03799562	      0.00987125	      0.00987125	      0.00987125	      0.04853766	      0.00987125	      0.05409295	      0.00987125	      0.02336881	      0.00987125	      0.00987125	      0.06468001	      0.00987125	      0.00987125	      0.06548605	      0.00987125	      0.21098898	      0.00987125	      0.04794975	      0.00987125	      0.09710271	      0.00987125	      0.06619970	      0.00987125	      0.03920006	      0.00987125	      0.07971389	      0.00987125	      0.07868880	      0.00987125	      0.08036615
      0.00242569	      0.00948599	      7.65075556	     -0.00009793	     -0.07516335	      0.00008171	      0.07482266	      0.00000439	      0.00351941	      0.93999103	     -0.00775508	     -0.00000017	     -0.00014609	      5.91049858	    -14.10573749	     -0.00010537	     -0.08715779	     -0.00887874	     -7.20877749	     -0.02150058	    -17.76012017	     -0.00037526	     -0.30997257	     -0.16512753	   -133.09916564	     -0.00000000	     -0.00000000	      0.00000000	      0.00000000	     -0.01686017	    -13.57779668	     -0.00030457	     -0.23739945	     -0.00844263	     -6.83132921	     -0.01516777	    -16.83202456	     -0.00026473	     -0.29377425	     -0.16506824	   -133.04337187	      0.00000000	      0.00000000	      0.00000000	      0.00000000	     -0.01053317	     -8.49734796	      0.00011595	      0.08879511	     -0.00007833	     -0.07224913	      0.00153294	      1.23950501	      0.00002063	      0.01803220	     -0.00006125	     -0.04913579	      0.00527839	     -0.38261505	      0.00581705	      0.05356638	     -0.00000000	     -0.00000000	     -0.00000000	     -0.00000000	      0.00153729	      1.24279244	      0.00006994	      0.05528276	     -0.00005225	     -0.04233158	      0.00527369	     -0.38616593	      0.00580555	      0.04488094	     -0.00000000	     -0.00000000	     -0.00000000	     -0.00000000	      0.00968769	      0.00968769	      0.10799257	      0.00968769	      0.00968769	      0.12943178	      0.00968769	      0.00968769	      0.00968769	      0.09484076	      0.00968769	      0.00968769	      0.06925494	      0.00968769	      0.07818789	      0.00968769	      0.04539904	      0.00968769	      0.05136605	      0.00968769	      0.07013251	      0.00968769	      0.05689050	      0.00968769	      0.00968769	      0.00968769	      0.00968769	      0.00968769	      0.00968769	      0.00968769	      0.00968769	      0.00968769	      0.03916230	      0.00968769	      0.00968769	      0.00968769	      0.04853260	      0.00968769	      0.05408861	      0.00968769	      0.02443020	      0.00968769	      0.00968769	      0.06109125	      0.00968769	      0.00968769	      0.06997272	      0.00968769	      0.21600887	      0.00968769	      0.04792656	      0.00968769	      0.09408257	      0.00968769	      0.06623980	      0.00968769	      0.03919645	      0.00968769	      0.07970307	      0.00968769	      0.07867975	      0.00968769	      0.08035634	      0.00968769	      0.00968769	      0.11276991	      0.00968769	      0.00968769	      0.12520302	      0.00968769	      0.00968769	      0.00968769	      0.08966989	      0.00968769	      0.00968769	      0.06925493	      0.00968769	      0.07818787	      0.00968769	      0.04539904	      0.00968769	      0.05136605	      0.00968769	      0.07013164	      0.00968769	      0.05689054	      0.00968769	      0.00968769	      0.00968769	      0.00968769	      0.00968769	      0.00968769	      0.00968769	      0.00968769	      0.00968769	      0.03799302	      0.00968769	      0.00968769	      0.00968769	      0.04853260	      0.00968769	      0.05408861	      0.00968769	      0.02336734	      0.00968769	      0.00968769	      0.06467874	      0.00968769	      0.00968769	      0.06548589	      0.00968769	      0.21098890	      0.00968769	      0.04792657	      0.00968769	      0.09710306	      0.00968769	      0.06623977	      0.00968769	      0.03919645	      0.00968769	      0.07970759	      0.00968769	      0.07868352	      0.00968769	      0.08036017
      0.00338334	      0.01811758	     10.34197520	     -0.00017969	     -0.09458478	      0.00017482	      0.12162006	      0.00000834	      0.00472056	      0.93998183	     -0.01155450	     -0.00000034	     -0.00022662	      5.89459919	    -19.03229145	     -0.00020459	     -0.11958256	     -0.01704658	     -9.82436553	     -0.04149400	    -23.90167677	     -0.00072421	     -0.41716296	     -0.31491374	   -178.97692837	     -0.00000000	     -0.00000000	      0.00000000	      0.00000000	     -0.03215444	    -18.29648551	     -0.00056477	     -0.30291212	     -0.01616106	     -9.25892449	     -0.03409816	    -22.60994620	     -0.00059513	     -0.39461800	     -0.31478458	   -178.88536378	      0.00000000	      0.00000000	      0.00000000	      0.00000000	     -0.02012181	    -11.49084541	      0.00021231	      0.11116888	     -0.00016867	     -0.11846269	      0.00293443	      1.68271238	      0.00004220	      0.02722662	     -0.00011631	     -0.06551533	      0.00484452	     -0.52247034	      0.00587780	      0.07319560	     -0.00000000	     -0.00000000	     -0.00000000	     -0.00000000	      0.00294230	      1.68670005	      0.00013132	      0.07241831	     -0.00010003	     -0.05726180	      0.00483603	     -0.52677733	      0.00585702	      0.06265838	     -0.00000000	     -0.00000000	     -0.00000000	     -0.00000000	      0.00956439	      0.00956439	      0.10800277	      0.00956439	      0.00956439	      0.12942363	      0.00956439	      0.00956439	      0.00956439	      0.09483849	      0.00956439	      0.00956439	      0.06930022	      0.00956439	      0.07824775	      0.00956439	      0.04539456	      0.00956439	      0.05135643	      0.00956439	      0.07008690	      0.00956439	      0.05685427	      0.00956439	      0.00956439	      0.00956439	      0.00956439	      0.00956439	      0.00956439	      0.00956439	      0.00956439	      0.00956439	      0.03915909	      0.00956439	      0.00956439	      0.00956439	      0.04852482	      0.00956439	      0.05408146	      0.00956439	      0.02442788	      0.00956439	      0.00956439	      0.06108922	      0.00956439	      0.00956439	      0.06997217	      0.00956439	      0.21600789	      0.00956439	      0.04788370	      0.00956439	      0.09408385	      0.00956439	      0.06632092	      0.00956439	      0.03919044	      0.00956439	      0.07969333	      0.00956439	      0.07867159	      0.00956439	      0.08034738	      0.00956439	      0.00956439	      0.11278007	      0.00956439	      0.00956439	      0.12519614	      0.00956439	      0.00956439	      0.00956439	      0.08966812	      0.00956439	      0.00956439	      0.06930018	      0.00956439	      0.07824770	      0.00956439	      0.04539456	      0.00956439	      0.05135643	      0.00956439	      0.07008595	      0.00956439	      0.05685433	      0.00956439	      0.00956439	      0.00956439	      0.00956439	      0.00956439	      0.00956439	      0.00956439	      0.00956439	      0.00956439	      0.03798938	      0.00956439	      0.00956439	      0.00956439	      0.04852483	      0.00956439	      0.05408147	      0.00956439	      0.02336496	      0.00956439	      0.00956439	      0.06467663	      0.00956439	      0.00956439	      0.06548562	      0.00956439	      0.21098879	      0.00956439	      0.04788373	      0.00956439	      0.09710363	      0.00956439	      0.06632086	      0.00956439	      0.03919044	      0.00956439	      0.07969835	      0.00956439	      0.07867579	      0.00956439	      0.08035168
